# xmcd
#
# Track frame offsets: 
#        150
#        13672
#        27530
#        56347
#        88082
#        98760
#        111497
#        124972
#        136347
#        143115
#        168082
#        190482
#        223350
#        241915
#        270765
#        304157
#        320707
#
# Disc length: 4629 seconds
#
# Revision: 1
# Processed by: cddbd v1.5.2PL0 Copyright (c) Steve Scherf et al.
# Submitted via: ExactAudioCopy v1.0b2
#
DISCID=f8121311
DTITLE=Quatuors Wiener Konzerthaus - Quatuors Wiener Konzerthaus 2
DYEAR=1900
DGENRE=
TTITLE0=Op2№3 Es-Dur-1 Allegro molto
TTITLE1=Op2№3 Es-Dur-2 Menuetto
TTITLE2=Op2№3 Es-Dur-3 Adagio
TTITLE3=Op2№3 Es-Dur-4 Menuetto
TTITLE4=Op2№3 Es-Dur-5 Finale Allegro
TTITLE5=Op3№1 E-Dur-1 Allegro molto
TTITLE6=Op3№1 E-Dur-2 Menuetto
TTITLE7=Op3№1 E-Dur-3 Andantino grazioso
TTITLE8=Op3№1 E-Dur-4 Presto
TTITLE9=Op.20№3-1Allegro con spirito
TTITLE10=Op.20№3-2 Menuetto Allegretto
TTITLE11=Op.20№3-3 Poco Adagio
TTITLE12=Op.20№3-4 Finale Allegro molto
TTITLE13=Op.77-1-1Allegro moderato
TTITLE14=Op.77-1-2 Adagio
TTITLE15=Op.77-1-3 Menuetto Presto
TTITLE16=Op.77-1-4 Finale Presto
EXTD=
EXTT0=
EXTT1=
EXTT2=
EXTT3=
EXTT4=
EXTT5=
EXTT6=
EXTT7=
EXTT8=
EXTT9=
EXTT10=
EXTT11=
EXTT12=
EXTT13=
EXTT14=
EXTT15=
EXTT16=
PLAYORDER=
